# xmcd
#
# Track frame offsets: 
#        150
#        14146
#        26159
#        41521
#        59192
#        72717
#        87091
#        101053
#        114713
#        125808
#        142356
#        155974
#        167434
#
# Disc length: 2385 seconds
#
# Revision: 0
# Processed by: cddbd v1.4PL0 Copyright (c) Steve Scherf et al.
# Submitted via: ExactAudioCopy v0.90b4
#
DISCID=d2094f0d
DTITLE=Pride of the Prairie - Judy Coder
DYEAR=2002
DGENRE=Country
TTITLE0=Pride of the Prairie
TTITLE1=There Ain't a Cow in Texas
TTITLE2=Wanted: One Good Cowboy
TTITLE3=Little Rose of the Prairie
TTITLE4=I've Just Got to Be a Cowgirl
TTITLE5=Out on the Lone Prairie
TTITLE6=There's a Love Knot in My Lariat
TTITLE7=Along the Santa Fe Trail
TTITLE8=Ragtime Cowboy Joe
TTITLE9=Waltzin' On Daddy's Shoes
TTITLE10=Rodeo Sweetheart
TTITLE11=May the Good Lord Take a Likin' to You
TTITLE12=Good Night, Soldier
EXTD=
EXTT0=
EXTT1=
EXTT2=
EXTT3=
EXTT4=
EXTT5=
EXTT6=
EXTT7=
EXTT8=
EXTT9=
EXTT10=
EXTT11=
EXTT12=
PLAYORDER=
